# xmcd CD database file
#
# Track frame offsets:
#	150
#	14906
#	32966
#	55369
#	64706
#	79877
#	103133
#	127748
#	141426
#
# Disc length: 2139 seconds
#
# Revision: 0
# Processed by: cddbd v1.5PL3 Copyright (c) Steve Scherf et al.
# Submitted via: CDex 1.50
#
DISCID=83085909
DTITLE=Loreena McKennitt - Elemental (Irish)
DYEAR=1900
DGENRE=New Age
TTITLE0=Blacksmith
TTITLE1=She Moved Through The Fair
TTITLE2=Stolen Child
TTITLE3=The Lark In The Clear Air
TTITLE4=Carrighfergus
TTITLE5=Kellswater
TTITLE6=Banks Of Claudy
TTITLE7=Come By The Hils
TTITLE8=Lullaby
EXTD=
EXTT0=
EXTT1=
EXTT2=
EXTT3=
EXTT4=
EXTT5=
EXTT6=
EXTT7=
EXTT8=
PLAYORDER=
